<?xml version="1.0" encoding="UTF-8" standalone="no"?>
<svg
   xmlns:dc="http://purl.org/dc/elements/1.1/"
   xmlns:cc="http://creativecommons.org/ns#"
   xmlns:rdf="http://www.w3.org/1999/02/22-rdf-syntax-ns#"
   xmlns:svg="http://www.w3.org/2000/svg"
   xmlns="http://www.w3.org/2000/svg"
   xmlns:sodipodi="http://sodipodi.sourceforge.net/DTD/sodipodi-0.dtd"
   xmlns:inkscape="http://www.inkscape.org/namespaces/inkscape"
   sodipodi:docname="splash.svg"
   inkscape:version="1.0 (4035a4fb49, 2020-05-01)"
   id="svg968"
   version="1.1"
   viewBox="0 0 158.74999 66.145835"
   height="250"
   width="600">
  <defs
     id="defs962" />
  <sodipodi:namedview
     inkscape:pagecheckerboard="false"
     inkscape:snap-text-baseline="false"
     inkscape:window-maximized="0"
     inkscape:window-y="13"
     inkscape:window-x="134"
     inkscape:window-height="961"
     inkscape:window-width="1638"
     units="px"
     showgrid="false"
     inkscape:document-rotation="0"
     inkscape:current-layer="layer1"
     inkscape:document-units="mm"
     inkscape:cy="106.00494"
     inkscape:cx="281.24046"
     inkscape:zoom="1.4142136"
     inkscape:pageshadow="2"
     inkscape:pageopacity="1"
     borderopacity="1.0"
     bordercolor="#666666"
     pagecolor="#ffffff"
     id="base" />
  <metadata
     id="metadata965">
    <rdf:RDF>
      <cc:Work
         rdf:about="">
        <dc:format>image/svg+xml</dc:format>
        <dc:type
           rdf:resource="http://purl.org/dc/dcmitype/StillImage" />
        <dc:title></dc:title>
      </cc:Work>
    </rdf:RDF>
  </metadata>
  <g
     id="layer1"
     inkscape:groupmode="layer"
     inkscape:label="レイヤー 1">
    <rect
       y="3.0162599"
       x="3.0162599"
       height="60.113316"
       width="152.71748"
       id="rect831"
       style="opacity:0.999;fill:#ffffff;stroke:#ffffff;stroke-width:6.03252;paint-order:markers stroke fill" />
    <path
       id="path896"
       style="font-style:normal;font-weight:normal;font-size:180.622px;line-height:1.25;font-family:sans-serif;display:inline;fill:#000000;fill-opacity:1;stroke:none;stroke-width:2.54619;stroke-linecap:butt;stroke-linejoin:miter;stroke-miterlimit:4;stroke-dasharray:none;stroke-opacity:1;paint-order:markers stroke fill"
       d="M 9.2604242,2.6458333 V 12.771432 H 19.838755 V 2.6458333 Z m 50.2758308,0 V 26.513482 h -39.6975 V 14.972673 H 9.2604242 V 63.5 H 19.838755 V 33.706285 h 39.6975 V 51.17315 H 70.114592 V 2.6458333 Z m 0,50.7285547 V 63.5 H 70.114592 V 53.374388 Z" />
    <g
       style="font-style:normal;font-weight:normal;font-size:24.3353px;line-height:1.25;font-family:sans-serif;letter-spacing:1.71107px;fill:#000000;fill-opacity:1;stroke:none;stroke-width:0.285179"
       id="text835"
       transform="matrix(0.97305276,0,0,1.0276935,2.6458432,0)"
       aria-label="HINAN">
      <path
         id="path837"
         style="font-style:normal;font-variant:normal;font-weight:normal;font-stretch:normal;font-size:24.3353px;font-family:'MyricaM M';-inkscape-font-specification:'MyricaM M';stroke-width:0.285179"
         d="m 85.651844,22.144966 h 1.901195 q 0.02376,0.02377 0.02376,0.07129 0,0.07129 -0.07129,0.19012 -0.04753,0.118824 -0.0713,0.332709 v 5.893705 h 5.941235 v -6.487829 h 1.853666 q 0.02376,0.02377 0.02376,0.07129 0,0.09506 -0.0713,0.213885 -0.07129,0.09506 -0.09506,0.261414 v 14.639204 h -1.734841 v -7.248307 h -5.91747 v 7.224542 h -1.782371 z" />
      <path
         id="path839"
         style="font-style:normal;font-variant:normal;font-weight:normal;font-stretch:normal;font-size:24.3353px;font-family:'MyricaM M';-inkscape-font-specification:'MyricaM M';stroke-width:0.285179"
         d="m 100.36234,22.144966 h 7.53348 v 1.425897 h -2.99438 v 12.35777 h 3.13697 v 1.402131 h -7.84243 v -1.425896 h 2.99439 V 23.570863 h -2.82803 z" />
      <path
         id="path841"
         style="font-style:normal;font-variant:normal;font-weight:normal;font-stretch:normal;font-size:24.3353px;font-family:'MyricaM M';-inkscape-font-specification:'MyricaM M';stroke-width:0.285179"
         d="M 113.31422,37.306999 V 22.144966 h 1.66355 l 6.36901,11.240818 V 22.121201 h 1.80613 q 0,0.14259 -0.0951,0.33271 -0.0713,0.166354 -0.0713,0.332709 v 14.520379 h -1.35461 l -6.67794,-11.930001 v 11.930001 z" />
      <path
         id="path843"
         style="font-style:normal;font-variant:normal;font-weight:normal;font-stretch:normal;font-size:24.3353px;font-family:'MyricaM M';-inkscape-font-specification:'MyricaM M';stroke-width:0.285179"
         d="m 126.33741,37.306999 5.37088,-15.423447 h 0.19011 l 5.84618,15.423447 h -1.75861 l -1.68731,-4.420279 h -4.82428 l -1.44966,4.420279 z m 7.58101,-5.751116 -2.13884,-5.774881 -1.94873,5.774881 z" />
      <path
         id="path845"
         style="font-style:normal;font-variant:normal;font-weight:normal;font-stretch:normal;font-size:24.3353px;font-family:'MyricaM M';-inkscape-font-specification:'MyricaM M';stroke-width:0.285179"
         d="M 141.07167,37.306999 V 22.144966 h 1.66354 l 6.36901,11.240818 V 22.121201 h 1.80613 q 0,0.14259 -0.0951,0.33271 -0.0713,0.166354 -0.0713,0.332709 v 14.520379 h -1.3546 L 142.7114,25.376998 v 11.930001 z" />
    </g>
  </g>
</svg>
