<?xml version="1.0" encoding="UTF-8" standalone="no"?>
<svg
   xmlns:dc="http://purl.org/dc/elements/1.1/"
   xmlns:cc="http://creativecommons.org/ns#"
   xmlns:rdf="http://www.w3.org/1999/02/22-rdf-syntax-ns#"
   xmlns:svg="http://www.w3.org/2000/svg"
   xmlns="http://www.w3.org/2000/svg"
   xmlns:sodipodi="http://sodipodi.sourceforge.net/DTD/sodipodi-0.dtd"
   xmlns:inkscape="http://www.inkscape.org/namespaces/inkscape"
   width="450"
   height="200"
   viewBox="0 0 119.06249 52.916668"
   version="1.1"
   id="svg968"
   inkscape:version="1.0 (4035a4fb49, 2020-05-01)"
   sodipodi:docname="splash.svg">
  <defs
     id="defs962" />
  <sodipodi:namedview
     id="base"
     pagecolor="#ffffff"
     bordercolor="#666666"
     borderopacity="1.0"
     inkscape:pageopacity="1"
     inkscape:pageshadow="2"
     inkscape:zoom="1"
     inkscape:cx="146.59057"
     inkscape:cy="6.7962376"
     inkscape:document-units="mm"
     inkscape:current-layer="layer1"
     inkscape:document-rotation="0"
     showgrid="false"
     units="px"
     inkscape:window-width="1638"
     inkscape:window-height="961"
     inkscape:window-x="254"
     inkscape:window-y="80"
     inkscape:window-maximized="0"
     inkscape:snap-text-baseline="false"
     inkscape:pagecheckerboard="false" />
  <metadata
     id="metadata965">
    <rdf:RDF>
      <cc:Work
         rdf:about="">
        <dc:format>image/svg+xml</dc:format>
        <dc:type
           rdf:resource="http://purl.org/dc/dcmitype/StillImage" />
        <dc:title></dc:title>
      </cc:Work>
    </rdf:RDF>
  </metadata>
  <g
     inkscape:label="レイヤー 1"
     inkscape:groupmode="layer"
     id="layer1">
    <rect
       style="opacity:0.999;fill:#ffffff;stroke:#ffffff;stroke-width:4.67689;paint-order:markers stroke fill"
       id="rect831"
       width="114.38561"
       height="48.239773"
       x="2.3384461"
       y="2.3384461" />
    <path
       d="m 10.583333,2.6458333 v 7.4841377 h 7.818766 V 2.6458333 Z m 37.160396,0 V 20.287139 H 18.402099 V 11.756975 H 10.583333 V 47.625 h 7.818766 V 25.603558 h 29.34163 V 38.51385 H 55.5625 V 2.6458333 Z m 0,37.4950187 V 47.625 H 55.5625 v -7.484148 z"
       style="font-style:normal;font-weight:normal;font-size:180.622px;line-height:1.25;font-family:sans-serif;display:inline;fill:#000000;fill-opacity:1;stroke:none;stroke-width:1.88197;stroke-linecap:butt;stroke-linejoin:miter;stroke-miterlimit:4;stroke-dasharray:none;stroke-opacity:1;paint-order:markers stroke fill"
       id="path896" />
    <g
       aria-label="HINAN"
       transform="matrix(0.72978974,0,0,0.77077016,3.638008,0.33072779)"
       id="text835"
       style="font-style:normal;font-weight:normal;font-size:24.3353px;line-height:1.25;font-family:sans-serif;letter-spacing:1.71107px;fill:#000000;fill-opacity:1;stroke:none;stroke-width:0.285179">
      <path
         d="m 85.651844,22.144966 h 1.901195 q 0.02376,0.02377 0.02376,0.07129 0,0.07129 -0.07129,0.19012 -0.04753,0.118824 -0.0713,0.332709 v 5.893705 h 5.941235 v -6.487829 h 1.853666 q 0.02376,0.02377 0.02376,0.07129 0,0.09506 -0.0713,0.213885 -0.07129,0.09506 -0.09506,0.261414 v 14.639204 h -1.734841 v -7.248307 h -5.91747 v 7.224542 h -1.782371 z"
         style="font-style:normal;font-variant:normal;font-weight:normal;font-stretch:normal;font-size:24.3353px;font-family:'MyricaM M';-inkscape-font-specification:'MyricaM M';stroke-width:0.285179"
         id="path837" />
      <path
         d="m 100.36234,22.144966 h 7.53348 v 1.425897 h -2.99438 v 12.35777 h 3.13697 v 1.402131 h -7.84243 v -1.425896 h 2.99439 V 23.570863 h -2.82803 z"
         style="font-style:normal;font-variant:normal;font-weight:normal;font-stretch:normal;font-size:24.3353px;font-family:'MyricaM M';-inkscape-font-specification:'MyricaM M';stroke-width:0.285179"
         id="path839" />
      <path
         d="M 113.31422,37.306999 V 22.144966 h 1.66355 l 6.36901,11.240818 V 22.121201 h 1.80613 q 0,0.14259 -0.0951,0.33271 -0.0713,0.166354 -0.0713,0.332709 v 14.520379 h -1.35461 l -6.67794,-11.930001 v 11.930001 z"
         style="font-style:normal;font-variant:normal;font-weight:normal;font-stretch:normal;font-size:24.3353px;font-family:'MyricaM M';-inkscape-font-specification:'MyricaM M';stroke-width:0.285179"
         id="path841" />
      <path
         d="m 126.33741,37.306999 5.37088,-15.423447 h 0.19011 l 5.84618,15.423447 h -1.75861 l -1.68731,-4.420279 h -4.82428 l -1.44966,4.420279 z m 7.58101,-5.751116 -2.13884,-5.774881 -1.94873,5.774881 z"
         style="font-style:normal;font-variant:normal;font-weight:normal;font-stretch:normal;font-size:24.3353px;font-family:'MyricaM M';-inkscape-font-specification:'MyricaM M';stroke-width:0.285179"
         id="path843" />
      <path
         d="M 141.07167,37.306999 V 22.144966 h 1.66354 l 6.36901,11.240818 V 22.121201 h 1.80613 q 0,0.14259 -0.0951,0.33271 -0.0713,0.166354 -0.0713,0.332709 v 14.520379 h -1.3546 L 142.7114,25.376998 v 11.930001 z"
         style="font-style:normal;font-variant:normal;font-weight:normal;font-stretch:normal;font-size:24.3353px;font-family:'MyricaM M';-inkscape-font-specification:'MyricaM M';stroke-width:0.285179"
         id="path845" />
    </g>
  </g>
</svg>
