<?xml version="1.0" encoding="UTF-8" standalone="no"?>
<svg
   xmlns:dc="http://purl.org/dc/elements/1.1/"
   xmlns:cc="http://creativecommons.org/ns#"
   xmlns:rdf="http://www.w3.org/1999/02/22-rdf-syntax-ns#"
   xmlns:svg="http://www.w3.org/2000/svg"
   xmlns="http://www.w3.org/2000/svg"
   xmlns:sodipodi="http://sodipodi.sourceforge.net/DTD/sodipodi-0.dtd"
   xmlns:inkscape="http://www.inkscape.org/namespaces/inkscape"
   inkscape:version="1.0 (4035a4fb49, 2020-05-01)"
   sodipodi:docname="update.svg"
   id="svg6754"
   version="1.1"
   fill="#000000"
   width="24px"
   viewBox="0 0 24 24"
   height="24px"
   enable-background="new 0 0 24 24">
  <metadata
     id="metadata6760">
    <rdf:RDF>
      <cc:Work
         rdf:about="">
        <dc:format>image/svg+xml</dc:format>
        <dc:type
           rdf:resource="http://purl.org/dc/dcmitype/StillImage" />
        <dc:title></dc:title>
      </cc:Work>
    </rdf:RDF>
  </metadata>
  <defs
     id="defs6758" />
  <sodipodi:namedview
     inkscape:current-layer="svg6754"
     inkscape:window-maximized="0"
     inkscape:window-y="0"
     inkscape:window-x="62"
     inkscape:cy="10.68356"
     inkscape:cx="15.090781"
     inkscape:zoom="18.541667"
     inkscape:pagecheckerboard="true"
     showgrid="false"
     id="namedview6756"
     inkscape:window-height="698"
     inkscape:window-width="1399"
     inkscape:pageshadow="2"
     inkscape:pageopacity="0"
     guidetolerance="10"
     gridtolerance="10"
     objecttolerance="10"
     borderopacity="1"
     bordercolor="#666666"
     pagecolor="#ffffff" />
  <g
     id="g6746">
    <rect
       id="rect6744"
       width="24"
       height="24"
       fill="none" />
  </g>
  <g
     style="stroke:#ffffff;stroke-opacity:1;paint-order:markers stroke fill"
     id="g6752">
    <g
       style="stroke:#ffffff;stroke-opacity:1;paint-order:markers stroke fill"
       id="g6750">
      <path
         style="stroke:#ffffff;stroke-opacity:1;paint-order:markers stroke fill"
         id="path6748"
         d="M11,8v5l4.25,2.52l0.77-1.28l-3.52-2.09V8H11z M21,10V3l-2.64,2.64C16.74,4.01,14.49,3,12,3c-4.97,0-9,4.03-9,9 s4.03,9,9,9s9-4.03,9-9h-2c0,3.86-3.14,7-7,7s-7-3.14-7-7s3.14-7,7-7c1.93,0,3.68,0.79,4.95,2.05L14,10H21z" />
    </g>
  </g>
</svg>
